<?xml version="1.0" standalone="no"?>
<!DOCTYPE svg PUBLIC "-//W3C//DTD SVG 20010904//EN"
 "http://www.w3.org/TR/2001/REC-SVG-20010904/DTD/svg10.dtd">
<svg version="1.0" xmlns="http://www.w3.org/2000/svg"
 width="300.000000pt" height="187.000000pt" viewBox="0 0 300.000000 187.000000"
 preserveAspectRatio="xMidYMid meet">
<metadata>
Created by potrace 1.10, written by Peter Selinger 2001-2011
</metadata>
<g transform="translate(0.000000,187.000000) scale(0.050000,-0.050000)"
fill="#000000" stroke="none">
<path d="M1640 3414 c-149 -43 -280 -118 -414 -239 -108 -98 -138 -115 -204
-115 -123 0 -158 -154 -66 -296 22 -34 27 -78 18 -173 -86 -919 1026 -1416
1647 -736 124 136 319 585 319 736 0 4 27 22 59 38 122 64 166 9 262 -329 325
-1141 1910 -945 1876 232 -5 174 -1 211 30 244 27 30 34 66 29 157 l-6 117
-94 11 c-77 9 -111 28 -200 111 -459 434 -1085 357 -1531 -186 -99 -121 -145
-138 -340 -126 l-161 10 -141 158 c-313 351 -709 492 -1083 386z m600 -198
c302 -142 514 -498 471 -788 -13 -84 -51 -143 -51 -79 0 17 -12 31 -27 31 -16
0 -26 -19 -25 -45 2 -29 15 -44 37 -42 74 6 -22 -208 -157 -353 -302 -323
-845 -317 -1147 13 -147 160 -232 367 -151 367 17 0 30 14 30 30 0 17 -18 30
-40 30 -56 0 -70 81 -42 237 95 512 649 814 1102 599z m2280 2 c504 -239 622
-882 237 -1289 -356 -377 -1017 -273 -1265 199 -64 122 -66 167 -7 176 29 4
47 22 51 51 8 52 -43 81 -83 47 -94 -78 -53 302 51 477 208 348 670 502 1016
339z"/>
<path d="M1818 3174 c-100 -76 -31 -254 98 -254 72 0 164 81 164 145 0 109
-170 180 -262 109z"/>
<path d="M2375 3064 c-46 -9 -70 -102 -33 -126 38 -24 80 -15 104 24 26 42
-22 112 -71 102z"/>
<path d="M1425 3045 c-30 -10 -33 -77 -5 -95 23 -14 47 34 37 76 -4 15 -18 24
-32 19z"/>
<path d="M1581 2811 c-36 -43 -49 -207 -20 -242 50 -61 183 8 230 119 47 111
-133 216 -210 123z"/>
<path d="M2044 2809 c-95 -67 -43 -290 68 -289 69 1 90 32 99 149 14 164 -53
220 -167 140z"/>
<path d="M2484 2783 c-69 -44 -33 -263 43 -263 87 0 124 169 53 240 -44 44
-58 47 -96 23z"/>
<path d="M1214 2687 c-24 -23 -15 -121 12 -143 30 -26 79 -1 86 43 5 35 -79
120 -98 100z"/>
<path d="M1439 2429 c-66 -80 -12 -266 77 -268 90 -3 138 175 76 276 -21 34
-123 28 -153 -8z"/>
<path d="M1821 2415 c-72 -116 -10 -262 106 -251 63 6 63 7 65 126 2 170 -97
242 -171 125z"/>
<path d="M2225 2435 c-58 -73 -49 -201 18 -237 87 -46 206 165 133 238 -31 31
-126 31 -151 -1z"/>
<path d="M1629 1982 c15 -25 593 -27 631 -2 20 13 -78 19 -306 20 -198 0 -332
-8 -325 -18z"/>
<path d="M4124 3169 c-101 -71 -23 -249 110 -249 69 0 166 83 166 144 0 107
-176 174 -276 105z"/>
<path d="M3713 3069 c-20 -50 -15 -105 9 -120 31 -20 59 16 64 82 5 65 -52 95
-73 38z"/>
<path d="M4650 3020 c-14 -22 23 -100 48 -100 31 0 67 59 55 90 -13 33 -84 41
-103 10z"/>
<path d="M3904 2809 c-82 -58 -44 -269 48 -269 34 0 168 143 168 179 0 91
-134 147 -216 90z"/>
<path d="M4385 2827 c-130 -53 -80 -317 57 -303 66 6 68 9 81 114 21 172 -25
234 -138 189z"/>
<path d="M4784 2756 c-41 -41 -30 -163 17 -192 70 -43 119 -13 119 74 0 107
-79 175 -136 118z"/>
<path d="M3513 2727 c-31 -32 -13 -166 26 -186 82 -44 139 62 67 123 -15 11
-26 33 -26 48 0 29 -43 38 -67 15z"/>
<path d="M3783 2448 c-54 -38 -62 -207 -12 -257 67 -66 169 -9 169 94 0 134
-80 217 -157 163z"/>
<path d="M4152 2430 c-92 -74 -63 -232 48 -259 90 -23 119 22 104 157 -17 144
-62 174 -152 102z"/>
<path d="M4531 2416 c-53 -76 -18 -236 51 -236 70 0 154 173 117 243 -29 53
-128 49 -168 -7z"/>
<path d="M4150 2000 c-154 -5 -266 -16 -250 -22 47 -20 607 -20 637 0 42 27
-72 33 -387 22z"/>
<path d="M4110 1880 c12 -20 7 -23 -18 -13 -26 9 -33 4 -28 -20 9 -47 76 -53
76 -6 0 20 -10 43 -23 51 -15 9 -18 5 -7 -12z"/>
<path d="M776 947 l-6 -168 -96 160 c-85 143 -103 161 -155 161 l-59 0 0 -250
0 -250 49 0 c48 0 50 4 55 174 l6 175 101 -170 c82 -138 111 -170 155 -175
l54 -7 0 249 c0 249 0 249 -49 259 -49 9 -50 8 -55 -158z"/>
<path d="M1155 1104 l-155 -6 0 -250 0 -250 165 6 c154 6 165 9 171 51 6 42 0
45 -115 45 l-121 0 0 65 0 65 100 -7 c96 -7 100 -5 100 46 0 51 -2 52 -100 39
l-100 -13 0 62 c0 63 0 63 111 63 82 0 113 8 122 31 19 50 -12 59 -178 53z"/>
<path d="M2700 1107 c-164 -66 -130 -237 56 -286 98 -26 129 -74 73 -114 -41
-30 -100 -19 -155 29 -32 29 -38 28 -70 -4 -64 -66 88 -149 226 -123 186 35
168 241 -26 298 -119 34 -150 113 -44 113 34 0 80 -9 100 -20 51 -28 95 43 50
80 -33 27 -166 44 -210 27z"/>
<path d="M3085 1106 c-44 -9 -45 -15 -45 -257 l0 -249 50 0 50 0 0 260 c0 143
-2 259 -5 257 -3 -1 -25 -6 -50 -11z"/>
<path d="M3372 1091 c-111 -60 -153 -181 -113 -328 39 -144 192 -212 281 -123
l40 40 0 -41 c0 -32 11 -40 45 -35 41 5 46 18 51 141 l6 135 -111 0 c-98 0
-111 -5 -111 -40 0 -31 13 -40 60 -40 74 0 80 -46 13 -90 -134 -87 -258 152
-149 285 30 36 136 31 180 -9 35 -31 39 -31 71 0 81 82 -142 170 -263 105z"/>
<path d="M3825 1104 c-44 -7 -45 -13 -45 -255 l0 -249 50 0 c48 0 50 5 50 120
l0 120 110 0 110 0 0 -120 c0 -115 2 -120 50 -120 l50 0 0 250 0 250 -50 0
c-46 0 -50 -7 -50 -90 l0 -90 -109 0 -109 0 -6 95 c-5 86 -10 94 -51 89z"/>
<path d="M1455 876 c-88 -268 -88 -264 -35 -272 31 -5 46 9 62 55 33 93 208
94 228 1 10 -47 24 -60 62 -60 62 0 61 8 -30 270 -76 218 -77 220 -145 226
l-68 6 -74 -226z m165 73 c51 -133 49 -149 -18 -149 -69 0 -72 11 -39 123 28
91 32 93 57 26z"/>
<path d="M1900 850 l0 -250 50 0 c47 0 50 6 50 111 0 159 87 158 140 -1 37
-111 163 -176 129 -67 -27 91 -65 172 -86 185 -12 8 -1 32 28 61 114 114 35
211 -171 211 l-140 0 0 -250z m250 110 c0 -43 -10 -51 -75 -56 -72 -6 -75 -4
-75 56 0 60 3 62 75 56 65 -5 75 -13 75 -56z"/>
<path d="M4274 1060 c8 -30 27 -40 78 -40 l68 0 0 -210 0 -210 50 0 50 0 0
210 0 210 70 0 c57 0 70 8 70 40 0 37 -13 40 -198 40 -188 0 -198 -2 -188 -40z"/>
<path d="M4730 855 l0 -245 165 -6 c165 -6 165 -6 165 45 0 49 -5 51 -121 51
l-122 0 7 63 c6 62 9 64 106 65 86 2 100 8 100 42 0 35 -13 40 -100 40 -94 0
-100 3 -106 55 -7 55 -6 55 115 55 108 0 121 4 121 40 0 37 -13 40 -165 40
l-165 0 0 -245z"/>
<path d="M5160 847 l0 -252 126 10 c402 32 415 495 14 495 l-140 0 0 -253z
m269 142 c104 -105 40 -289 -100 -289 l-69 0 0 160 0 160 69 0 c37 0 82 -14
100 -31z"/>
<path d="M2320 850 c0 -47 6 -50 110 -50 104 0 110 3 110 50 0 47 -6 50 -110
50 -104 0 -110 -3 -110 -50z"/>
<path d="M381 392 c-18 -23 -16 -33 13 -50 30 -17 31 -21 4 -21 -52 -1 -37
-61 15 -61 31 0 47 12 47 35 0 21 6 26 15 13 17 -24 325 -31 325 -7 0 9 6 31
13 49 17 44 -77 34 -97 -10 -11 -25 -13 -24 -15 5 -1 43 -41 47 -41 5 0 -16
-16 -29 -35 -28 -21 1 -25 5 -10 11 14 6 25 18 25 27 0 20 -146 18 -161 -3 -5
-8 -23 -7 -40 4 -21 13 -22 18 -3 19 15 0 21 9 14 20 -17 28 -41 25 -69 -8z"/>
<path d="M980 420 c-17 -31 -11 -160 8 -160 37 1 67 28 77 70 9 36 11 36 13
-5 3 -73 74 -59 90 18 14 74 -1 100 -35 57 -12 -17 -43 -27 -68 -24 -37 6 -46
-3 -48 -50 -2 -45 -5 -41 -17 24 -8 44 -17 76 -20 70z"/>
<path d="M1680 398 c0 -12 -13 -17 -29 -11 -17 6 -35 3 -40 -6 -6 -9 -29 -13
-51 -7 -32 9 -40 1 -40 -42 0 -61 71 -75 86 -17 9 32 10 32 12 1 3 -47 224
-43 246 4 11 25 13 24 15 -5 2 -55 41 -41 41 15 0 48 -4 50 -111 42 -90 -6
-110 -2 -101 20 6 15 2 28 -9 28 -10 0 -19 -10 -19 -22z"/>
<path d="M1988 396 c-36 -57 -23 -136 23 -136 118 0 169 24 168 78 0 50 -1 51
-30 13 -29 -38 -29 -38 -31 0 -2 25 -8 17 -18 -21 -12 -49 -16 -51 -18 -15 -1
26 -15 45 -33 45 -17 0 -26 -9 -19 -20 7 -11 3 -20 -9 -20 -11 0 -21 14 -21
30 0 17 18 30 41 30 23 0 36 9 29 20 -17 27 -64 25 -82 -4z"/>
<path d="M2420 396 c0 -9 -27 -16 -60 -16 -33 0 -60 -11 -60 -24 0 -19 -5 -19
-24 0 -40 40 -76 27 -76 -26 0 -69 108 -74 129 -5 l13 45 18 -44 c32 -77 140
-58 140 26 0 53 -8 65 -40 63 -22 -2 -40 -11 -40 -19z"/>
<path d="M2758 345 c-9 -84 -8 -85 52 -85 59 0 62 3 54 70 -7 61 -44 103 -44
50 0 -34 -37 -22 -45 15 -4 19 -12 -3 -17 -50z"/>
<path d="M3068 392 c-6 -16 -27 -23 -49 -17 -31 8 -39 -1 -39 -42 0 -46 8 -51
66 -49 62 2 65 6 57 69 -8 72 -18 83 -35 39z"/>
<path d="M3180 401 c0 -11 -14 -14 -32 -8 -25 10 -30 1 -25 -45 8 -69 87 -95
103 -34 9 33 10 33 12 1 2 -39 42 -49 42 -10 1 17 5 18 15 3 33 -48 197 -32
221 22 19 40 18 50 -5 50 -16 0 -32 -20 -37 -45 l-9 -45 -2 45 c-3 51 -58 62
-76 15 -6 -16 -26 -29 -44 -28 -21 1 -24 5 -8 11 14 6 25 19 25 29 0 25 -55
23 -64 -3 -3 -11 -26 -2 -50 20 -49 45 -66 51 -66 22z"/>
<path d="M3694 350 c10 -62 6 -70 -31 -70 -32 0 -41 11 -38 45 6 55 -71 65
-81 10 -15 -78 213 -105 265 -31 21 31 31 36 31 15 0 -43 80 -45 81 -3 0 30 3
30 29 -4 34 -45 90 -29 90 26 0 33 -13 39 -80 38 -44 0 -80 -9 -80 -19 0 -10
-18 -2 -39 18 -77 71 -160 57 -147 -25z"/>
<path d="M4215 392 c-67 -24 -85 -161 -20 -148 19 4 36 20 38 36 9 104 12 109
27 50 10 -38 16 -46 18 -21 2 38 2 38 31 0 28 -37 30 -37 30 16 1 34 -10 55
-27 55 -16 0 -32 7 -35 16 -4 9 -32 7 -62 -4z"/>
<path d="M4397 340 c-9 -92 94 -127 117 -40 13 49 46 53 46 5 1 -27 4 -29 18
-8 12 19 21 21 31 5 25 -41 105 -25 119 23 10 37 15 40 32 15 10 -16 14 -46 8
-65 -17 -54 23 -41 49 16 13 28 23 57 23 65 0 28 -225 28 -243 0 -12 -20 -16
-20 -17 -1 0 14 -18 25 -40 25 -29 0 -40 -13 -40 -51 0 -42 -5 -46 -28 -25
-16 15 -20 29 -8 33 12 5 9 15 -7 25 -20 13 -20 17 -2 18 14 0 25 9 25 20 0
68 -76 13 -83 -60z"/>
<path d="M5175 396 c-4 -14 -39 -25 -76 -25 -49 -1 -70 -11 -75 -36 -8 -42 54
-71 76 -36 10 18 19 19 29 3 33 -54 91 -23 91 48 0 67 -28 96 -45 46z"/>
<path d="M5277 340 c-7 -71 -3 -80 35 -80 88 0 166 26 175 57 7 29 9 28 11 -2
1 -19 10 -35 21 -35 10 0 16 25 12 55 -3 30 -11 53 -18 50 -21 -8 -41 -10 -78
-6 -25 3 -35 -11 -35 -48 0 -28 -8 -51 -18 -51 -10 0 -14 18 -8 40 12 44 -24
100 -64 100 -15 0 -29 -33 -33 -80z"/>
<path d="M2655 386 c-50 -13 -51 -152 -1 -142 24 4 36 29 39 81 3 41 3 74 1
73 -2 -2 -20 -7 -39 -12z"/>
<path d="M4963 349 c9 -73 49 -86 46 -15 -1 29 -14 58 -27 62 -17 6 -23 -10
-19 -47z"/>
<path d="M840 329 c0 -66 67 -60 76 6 5 34 -3 45 -35 45 -31 0 -41 -13 -41
-51z"/>
<path d="M1192 363 c-20 -32 11 -85 46 -79 42 8 42 84 -1 92 -18 3 -39 -2 -45
-13z"/>
<path d="M1301 325 l2 -55 22 50 c22 50 22 50 30 5 9 -53 44 -61 46 -10 2 31
4 30 17 -4 15 -38 15 -38 31 0 15 38 16 38 32 -1 14 -35 16 -33 18 15 1 53 -3
55 -99 55 -96 0 -100 -2 -99 -55z"/>
<path d="M2522 325 c2 -34 6 -42 12 -20 5 19 17 35 26 35 9 0 21 -16 26 -35 6
-22 10 -14 12 20 1 42 -7 55 -38 55 -31 0 -39 -13 -38 -55z"/>
<path d="M2888 351 c-15 -37 6 -71 43 -71 18 0 29 20 29 50 0 55 -53 70 -72
21z"/>
<path d="M4062 335 c-1 -42 7 -55 38 -55 31 0 39 13 38 55 -2 34 -6 42 -12 20
-5 -19 -17 -35 -26 -35 -9 0 -21 16 -26 35 -6 22 -10 14 -12 -20z"/>
<path d="M4862 305 c0 -41 6 -64 11 -50 6 14 23 25 39 25 17 0 28 20 28 50 0
37 -11 50 -40 50 -33 0 -40 -13 -38 -75z"/>
<path d="M5560 330 c0 -37 11 -50 40 -50 29 0 40 13 40 50 0 37 -11 50 -40 50
-29 0 -40 -13 -40 -50z"/>
</g>
</svg>
